<svg width="95" height="29" viewBox="0 0 95 29" fill="none" xmlns="http://www.w3.org/2000/svg">
<path d="M0.884943 11V0.818182H3.03764V5.01918H7.40767V0.818182H9.5554V11H7.40767V6.79403H3.03764V11H0.884943ZM16.1875 7.74858V3.36364H18.3054V11H16.272V9.61293H16.1925C16.0201 10.0604 15.7334 10.42 15.3324 10.6918C14.9347 10.9635 14.4491 11.0994 13.8757 11.0994C13.3653 11.0994 12.9162 10.9834 12.5284 10.7514C12.1406 10.5194 11.8374 10.1896 11.6186 9.76207C11.4032 9.33452 11.2938 8.82244 11.2905 8.22585V3.36364H13.4084V7.84801C13.4117 8.29877 13.5327 8.65507 13.7713 8.9169C14.0099 9.17874 14.3298 9.30966 14.7308 9.30966C14.986 9.30966 15.2247 9.25166 15.4467 9.13565C15.6688 9.01634 15.8478 8.84067 15.9837 8.60866C16.1229 8.37666 16.1908 8.08996 16.1875 7.74858ZM19.9995 11V3.36364H22.0179V4.71094H22.1074C22.2665 4.26349 22.5317 3.91051 22.9029 3.65199C23.2741 3.39347 23.7182 3.2642 24.2353 3.2642C24.7589 3.2642 25.2047 3.39512 25.5726 3.65696C25.9405 3.91548 26.1858 4.26681 26.3084 4.71094H26.388C26.5437 4.27344 26.8255 3.92377 27.2331 3.66193C27.6441 3.39678 28.1297 3.2642 28.6898 3.2642C29.4024 3.2642 29.9808 3.49124 30.4249 3.94531C30.8723 4.39607 31.0961 5.03575 31.0961 5.86435V11H28.9831V6.28196C28.9831 5.85772 28.8704 5.53954 28.6451 5.32741C28.4197 5.11529 28.138 5.00923 27.7999 5.00923C27.4154 5.00923 27.1155 5.13187 26.9 5.37713C26.6846 5.61908 26.5769 5.93892 26.5769 6.33665V11H24.5236V6.23722C24.5236 5.86269 24.4159 5.56439 24.2005 5.34233C23.9883 5.12026 23.7083 5.00923 23.3603 5.00923C23.1249 5.00923 22.9128 5.06889 22.7239 5.18821C22.5383 5.30421 22.3908 5.46828 22.2814 5.6804C22.1721 5.8892 22.1174 6.13447 22.1174 6.41619V11H19.9995ZM34.9466 11.1442C34.4593 11.1442 34.0252 11.0597 33.644 10.8906C33.2628 10.7183 32.9612 10.4647 32.7392 10.13C32.5204 9.7919 32.411 9.37098 32.411 8.86719C32.411 8.44295 32.4889 8.08665 32.6447 7.7983C32.8005 7.50994 33.0126 7.27794 33.2811 7.10227C33.5495 6.92661 33.8545 6.79403 34.1958 6.70455C34.5405 6.61506 34.9018 6.55208 35.2797 6.51562C35.7238 6.46922 36.0817 6.42614 36.3535 6.38636C36.6253 6.34328 36.8225 6.2803 36.9451 6.19744C37.0678 6.11458 37.1291 5.99195 37.1291 5.82955V5.79972C37.1291 5.48485 37.0297 5.24124 36.8308 5.06889C36.6352 4.89654 36.3568 4.81037 35.9956 4.81037C35.6144 4.81037 35.3111 4.89489 35.0858 5.06392C34.8604 5.22964 34.7112 5.43845 34.6383 5.69034L32.6795 5.53125C32.7789 5.06723 32.9745 4.66619 33.2662 4.32812C33.5578 3.98674 33.934 3.7249 34.3947 3.54261C34.8587 3.35701 35.3957 3.2642 36.0055 3.2642C36.4297 3.2642 36.8358 3.31392 37.2235 3.41335C37.6146 3.51278 37.961 3.6669 38.2626 3.87571C38.5675 4.08452 38.8078 4.35298 38.9835 4.68111C39.1592 5.00592 39.247 5.39536 39.247 5.84943V11H37.2385V9.94105H37.1788C37.0562 10.1797 36.8921 10.3902 36.6866 10.5724C36.4811 10.7514 36.2342 10.8923 35.9458 10.995C35.6575 11.0945 35.3244 11.1442 34.9466 11.1442ZM35.5531 9.68253C35.8646 9.68253 36.1397 9.62121 36.3784 9.49858C36.617 9.37263 36.8043 9.2036 36.9402 8.99148C37.0761 8.77936 37.144 8.53906 37.144 8.2706V7.46023C37.0777 7.50331 36.9866 7.54309 36.8706 7.57955C36.7579 7.61269 36.6303 7.64418 36.4877 7.67401C36.3452 7.70052 36.2027 7.72538 36.0602 7.74858C35.9177 7.76847 35.7884 7.78669 35.6724 7.80327C35.4238 7.83973 35.2067 7.89773 35.0211 7.97727C34.8355 8.05682 34.6913 8.16454 34.5886 8.30043C34.4859 8.433 34.4345 8.59872 34.4345 8.79759C34.4345 9.08594 34.5389 9.30634 34.7477 9.45881C34.9598 9.60795 35.2283 9.68253 35.5531 9.68253ZM43.008 6.58523V11H40.8901V3.36364H42.9086V4.71094H42.998C43.1671 4.26681 43.4505 3.91548 43.8482 3.65696C44.2459 3.39512 44.7282 3.2642 45.2949 3.2642C45.8252 3.2642 46.2876 3.38021 46.682 3.61222C47.0764 3.84422 47.383 4.17566 47.6017 4.60653C47.8205 5.03409 47.9299 5.54451 47.9299 6.13778V11H45.812V6.51562C45.8153 6.0483 45.696 5.68371 45.454 5.42188C45.2121 5.15672 44.879 5.02415 44.4547 5.02415C44.1697 5.02415 43.9178 5.08546 43.699 5.2081C43.4836 5.33073 43.3146 5.50971 43.1919 5.74503C43.0726 5.97704 43.0113 6.2571 43.008 6.58523ZM55.9528 5.54119L54.0138 5.66051C53.9807 5.49479 53.9094 5.34564 53.8001 5.21307C53.6907 5.07718 53.5465 4.96946 53.3675 4.88991C53.1919 4.80705 52.9814 4.76562 52.7362 4.76562C52.408 4.76562 52.1313 4.83523 51.9059 4.97443C51.6805 5.11032 51.5678 5.29261 51.5678 5.52131C51.5678 5.7036 51.6407 5.85772 51.7866 5.98366C51.9324 6.10961 52.1826 6.2107 52.5373 6.28693L53.9194 6.56534C54.6618 6.7178 55.2153 6.96307 55.5799 7.30114C55.9445 7.6392 56.1268 8.08333 56.1268 8.63352C56.1268 9.134 55.9793 9.57315 55.6843 9.95099C55.3926 10.3288 54.9916 10.6238 54.4812 10.8359C53.9741 11.0447 53.3891 11.1491 52.7262 11.1491C51.7153 11.1491 50.9099 10.9387 50.31 10.5178C49.7134 10.0935 49.3638 9.51681 49.261 8.78764L51.3441 8.67827C51.4071 8.98651 51.5595 9.22183 51.8015 9.38423C52.0434 9.54332 52.3533 9.62287 52.7312 9.62287C53.1024 9.62287 53.4007 9.55161 53.6261 9.40909C53.8548 9.26326 53.9708 9.07599 53.9741 8.8473C53.9708 8.65507 53.8896 8.49763 53.7305 8.375C53.5714 8.24905 53.3261 8.15294 52.9947 8.08665L51.6722 7.82315C50.9265 7.67401 50.3713 7.41548 50.0067 7.04759C49.6455 6.67969 49.4648 6.2107 49.4648 5.64062C49.4648 5.15009 49.5974 4.72751 49.8626 4.37287C50.131 4.01823 50.5072 3.74479 50.9911 3.55256C51.4783 3.36032 52.0484 3.2642 52.7013 3.2642C53.6658 3.2642 54.4248 3.46804 54.9783 3.87571C55.5352 4.28338 55.86 4.83854 55.9528 5.54119ZM64.8072 3.36364V4.95455H60.0941V3.36364H64.8072ZM61.1729 11V2.81179C61.1729 2.25829 61.2807 1.79924 61.4961 1.43466C61.7148 1.07008 62.0131 0.796638 62.391 0.614346C62.7688 0.432054 63.198 0.340908 63.6786 0.340908C64.0034 0.340908 64.3001 0.365767 64.5685 0.415483C64.8403 0.465199 65.0425 0.509943 65.1751 0.549716L64.7972 2.14062C64.7144 2.11411 64.6116 2.08925 64.489 2.06605C64.3697 2.04285 64.247 2.03125 64.1211 2.03125C63.8095 2.03125 63.5924 2.10417 63.4698 2.25C63.3472 2.39252 63.2859 2.59304 63.2859 2.85156V11H61.1729ZM69.2779 11.1491C68.5056 11.1491 67.8378 10.9851 67.2743 10.657C66.7142 10.3255 66.2817 9.86482 65.9767 9.27486C65.6718 8.68158 65.5194 7.99384 65.5194 7.21165C65.5194 6.42282 65.6718 5.73343 65.9767 5.14347C66.2817 4.55019 66.7142 4.08949 67.2743 3.76136C67.8378 3.42992 68.5056 3.2642 69.2779 3.2642C70.0501 3.2642 70.7163 3.42992 71.2765 3.76136C71.8399 4.08949 72.2741 4.55019 72.579 5.14347C72.8839 5.73343 73.0364 6.42282 73.0364 7.21165C73.0364 7.99384 72.8839 8.68158 72.579 9.27486C72.2741 9.86482 71.8399 10.3255 71.2765 10.657C70.7163 10.9851 70.0501 11.1491 69.2779 11.1491ZM69.2878 9.50852C69.6391 9.50852 69.9325 9.40909 70.1678 9.21023C70.4031 9.00805 70.5804 8.73295 70.6998 8.38494C70.8224 8.03693 70.8837 7.64086 70.8837 7.19673C70.8837 6.7526 70.8224 6.35653 70.6998 6.00852C70.5804 5.66051 70.4031 5.38542 70.1678 5.18324C69.9325 4.98106 69.6391 4.87997 69.2878 4.87997C68.9332 4.87997 68.6349 4.98106 68.3929 5.18324C68.1543 5.38542 67.9737 5.66051 67.851 6.00852C67.7317 6.35653 67.6721 6.7526 67.6721 7.19673C67.6721 7.64086 67.7317 8.03693 67.851 8.38494C67.9737 8.73295 68.1543 9.00805 68.3929 9.21023C68.6349 9.40909 68.9332 9.50852 69.2878 9.50852ZM74.4135 11V3.36364H76.4668V4.69602H76.5463C76.6855 4.22206 76.9192 3.86411 77.2473 3.62216C77.5755 3.37689 77.9533 3.25426 78.3809 3.25426C78.4869 3.25426 78.6013 3.26089 78.7239 3.27415C78.8465 3.28741 78.9542 3.30563 79.0471 3.32883V5.2081C78.9476 5.17827 78.8101 5.15175 78.6344 5.12855C78.4587 5.10535 78.298 5.09375 78.1522 5.09375C77.8406 5.09375 77.5622 5.1617 77.3169 5.29759C77.075 5.43016 76.8828 5.61577 76.7402 5.8544C76.601 6.09304 76.5314 6.36813 76.5314 6.67969V11H74.4135ZM0.884943 17.8182H3.53977L6.34375 24.6591H6.46307L9.26705 17.8182H11.9219V28H9.83381V21.3729H9.74929L7.11435 27.9503H5.69247L3.05753 21.348H2.97301V28H0.884943V17.8182ZM17.1358 28.1491C16.3503 28.1491 15.6742 27.9901 15.1074 27.6719C14.544 27.3504 14.1098 26.8963 13.8049 26.3097C13.4999 25.7197 13.3475 25.022 13.3475 24.2166C13.3475 23.4311 13.4999 22.7417 13.8049 22.1484C14.1098 21.5552 14.539 21.0928 15.0925 20.7614C15.6493 20.4299 16.3023 20.2642 17.0513 20.2642C17.5551 20.2642 18.0241 20.3454 18.4583 20.5078C18.8958 20.6669 19.2769 20.9072 19.6017 21.2287C19.9299 21.5502 20.1851 21.9545 20.3674 22.4418C20.5497 22.9257 20.6408 23.4924 20.6408 24.142V24.7237H14.1926V23.4112H18.6472C18.6472 23.1063 18.5809 22.8362 18.4483 22.6009C18.3158 22.3655 18.1318 22.1816 17.8965 22.049C17.6645 21.9131 17.3944 21.8452 17.0861 21.8452C16.7646 21.8452 16.4796 21.9197 16.231 22.0689C15.9857 22.2147 15.7935 22.4119 15.6543 22.6605C15.5151 22.9058 15.4438 23.1792 15.4405 23.4808V24.7287C15.4405 25.1065 15.5101 25.433 15.6493 25.7081C15.7918 25.9832 15.9924 26.1953 16.2509 26.3445C16.5094 26.4936 16.816 26.5682 17.1706 26.5682C17.406 26.5682 17.6214 26.535 17.8169 26.4688C18.0125 26.4025 18.1799 26.303 18.3191 26.1705C18.4583 26.0379 18.5643 25.8755 18.6373 25.6832L20.5961 25.8125C20.4966 26.2831 20.2928 26.6941 19.9846 27.0455C19.6796 27.3935 19.2852 27.6652 18.8013 27.8608C18.3207 28.053 17.7656 28.1491 17.1358 28.1491ZM24.1408 23.5852V28H22.0229V20.3636H24.0414V21.7109H24.1309C24.2999 21.2668 24.5833 20.9155 24.981 20.657C25.3787 20.3951 25.861 20.2642 26.4277 20.2642C26.958 20.2642 27.4204 20.3802 27.8148 20.6122C28.2092 20.8442 28.5158 21.1757 28.7346 21.6065C28.9533 22.0341 29.0627 22.5445 29.0627 23.1378V28H26.9448V23.5156C26.9481 23.0483 26.8288 22.6837 26.5868 22.4219C26.3449 22.1567 26.0118 22.0241 25.5875 22.0241C25.3025 22.0241 25.0506 22.0855 24.8319 22.2081C24.6164 22.3307 24.4474 22.5097 24.3248 22.745C24.2054 22.977 24.1441 23.2571 24.1408 23.5852ZM34.7937 20.3636V21.9545H30.195V20.3636H34.7937ZM31.239 18.5341H33.3569V25.6534C33.3569 25.849 33.3867 26.0014 33.4464 26.1108C33.506 26.2169 33.5889 26.2914 33.695 26.3345C33.8043 26.3776 33.9303 26.3991 34.0728 26.3991C34.1722 26.3991 34.2717 26.3909 34.3711 26.3743C34.4705 26.3544 34.5468 26.3395 34.5998 26.3295L34.9329 27.9055C34.8268 27.9387 34.6777 27.9768 34.4854 28.0199C34.2932 28.0663 34.0595 28.0945 33.7844 28.1044C33.274 28.1243 32.8266 28.0563 32.4421 27.9006C32.061 27.7448 31.7643 27.5028 31.5522 27.1747C31.3401 26.8466 31.2357 26.4323 31.239 25.9318V18.5341ZM38.3509 28.1442C37.8636 28.1442 37.4295 28.0597 37.0483 27.8906C36.6671 27.7183 36.3655 27.4647 36.1435 27.13C35.9247 26.7919 35.8153 26.371 35.8153 25.8672C35.8153 25.4429 35.8932 25.0866 36.049 24.7983C36.2048 24.5099 36.4169 24.2779 36.6854 24.1023C36.9538 23.9266 37.2588 23.794 37.6001 23.7045C37.9448 23.6151 38.3061 23.5521 38.6839 23.5156C39.1281 23.4692 39.486 23.4261 39.7578 23.3864C40.0296 23.3433 40.2268 23.2803 40.3494 23.1974C40.4721 23.1146 40.5334 22.992 40.5334 22.8295V22.7997C40.5334 22.4848 40.4339 22.2412 40.2351 22.0689C40.0395 21.8965 39.7611 21.8104 39.3999 21.8104C39.0187 21.8104 38.7154 21.8949 38.4901 22.0639C38.2647 22.2296 38.1155 22.4384 38.0426 22.6903L36.0838 22.5312C36.1832 22.0672 36.3788 21.6662 36.6705 21.3281C36.9621 20.9867 37.3383 20.7249 37.799 20.5426C38.263 20.357 38.8 20.2642 39.4098 20.2642C39.834 20.2642 40.2401 20.3139 40.6278 20.4134C41.0189 20.5128 41.3653 20.6669 41.6669 20.8757C41.9718 21.0845 42.2121 21.353 42.3878 21.6811C42.5634 22.0059 42.6513 22.3954 42.6513 22.8494V28H40.6428V26.9411H40.5831C40.4605 27.1797 40.2964 27.3902 40.0909 27.5724C39.8854 27.7514 39.6385 27.8923 39.3501 27.995C39.0618 28.0945 38.7287 28.1442 38.3509 28.1442ZM38.9574 26.6825C39.2689 26.6825 39.544 26.6212 39.7827 26.4986C40.0213 26.3726 40.2086 26.2036 40.3445 25.9915C40.4804 25.7794 40.5483 25.5391 40.5483 25.2706V24.4602C40.482 24.5033 40.3909 24.5431 40.2749 24.5795C40.1622 24.6127 40.0346 24.6442 39.892 24.674C39.7495 24.7005 39.607 24.7254 39.4645 24.7486C39.322 24.7685 39.1927 24.7867 39.0767 24.8033C38.8281 24.8397 38.611 24.8977 38.4254 24.9773C38.2398 25.0568 38.0956 25.1645 37.9929 25.3004C37.8902 25.433 37.8388 25.5987 37.8388 25.7976C37.8388 26.0859 37.9432 26.3063 38.152 26.4588C38.3641 26.608 38.6326 26.6825 38.9574 26.6825ZM46.4123 17.8182V28H44.2944V17.8182H46.4123ZM51.3888 28V17.8182H53.5415V22.0192H57.9116V17.8182H60.0593V28H57.9116V23.794H53.5415V28H51.3888ZM65.2745 28.1491C64.489 28.1491 63.8129 27.9901 63.2461 27.6719C62.6826 27.3504 62.2485 26.8963 61.9435 26.3097C61.6386 25.7197 61.4862 25.022 61.4862 24.2166C61.4862 23.4311 61.6386 22.7417 61.9435 22.1484C62.2485 21.5552 62.6777 21.0928 63.2312 20.7614C63.788 20.4299 64.4409 20.2642 65.19 20.2642C65.6938 20.2642 66.1628 20.3454 66.5969 20.5078C67.0344 20.6669 67.4156 20.9072 67.7404 21.2287C68.0685 21.5502 68.3237 21.9545 68.506 22.4418C68.6883 22.9257 68.7795 23.4924 68.7795 24.142V24.7237H62.3313V23.4112H66.7859C66.7859 23.1063 66.7196 22.8362 66.587 22.6009C66.4544 22.3655 66.2705 22.1816 66.0352 22.049C65.8031 21.9131 65.533 21.8452 65.2248 21.8452C64.9033 21.8452 64.6183 21.9197 64.3697 22.0689C64.1244 22.2147 63.9322 22.4119 63.793 22.6605C63.6538 22.9058 63.5825 23.1792 63.5792 23.4808V24.7287C63.5792 25.1065 63.6488 25.433 63.788 25.7081C63.9305 25.9832 64.131 26.1953 64.3896 26.3445C64.6481 26.4936 64.9547 26.5682 65.3093 26.5682C65.5446 26.5682 65.7601 26.535 65.9556 26.4688C66.1512 26.4025 66.3185 26.303 66.4577 26.1705C66.5969 26.0379 66.703 25.8755 66.7759 25.6832L68.7347 25.8125C68.6353 26.2831 68.4315 26.6941 68.1232 27.0455C67.8183 27.3935 67.4239 27.6652 66.94 27.8608C66.4594 28.053 65.9042 28.1491 65.2745 28.1491ZM72.3391 28.1442C71.8519 28.1442 71.4177 28.0597 71.0366 27.8906C70.6554 27.7183 70.3538 27.4647 70.1317 27.13C69.913 26.7919 69.8036 26.371 69.8036 25.8672C69.8036 25.4429 69.8815 25.0866 70.0373 24.7983C70.1931 24.5099 70.4052 24.2779 70.6737 24.1023C70.9421 23.9266 71.247 23.794 71.5884 23.7045C71.9331 23.6151 72.2944 23.5521 72.6722 23.5156C73.1164 23.4692 73.4743 23.4261 73.7461 23.3864C74.0179 23.3433 74.2151 23.2803 74.3377 23.1974C74.4603 23.1146 74.5217 22.992 74.5217 22.8295V22.7997C74.5217 22.4848 74.4222 22.2412 74.2234 22.0689C74.0278 21.8965 73.7494 21.8104 73.3881 21.8104C73.007 21.8104 72.7037 21.8949 72.4783 22.0639C72.253 22.2296 72.1038 22.4384 72.0309 22.6903L70.0721 22.5312C70.1715 22.0672 70.3671 21.6662 70.6587 21.3281C70.9504 20.9867 71.3266 20.7249 71.7873 20.5426C72.2513 20.357 72.7882 20.2642 73.3981 20.2642C73.8223 20.2642 74.2283 20.3139 74.6161 20.4134C75.0072 20.5128 75.3536 20.6669 75.6552 20.8757C75.9601 21.0845 76.2004 21.353 76.3761 21.6811C76.5517 22.0059 76.6396 22.3954 76.6396 22.8494V28H74.631V26.9411H74.5714C74.4487 27.1797 74.2847 27.3902 74.0792 27.5724C73.8737 27.7514 73.6268 27.8923 73.3384 27.995C73.0501 28.0945 72.717 28.1442 72.3391 28.1442ZM72.9457 26.6825C73.2572 26.6825 73.5323 26.6212 73.771 26.4986C74.0096 26.3726 74.1969 26.2036 74.3327 25.9915C74.4686 25.7794 74.5366 25.5391 74.5366 25.2706V24.4602C74.4703 24.5033 74.3791 24.5431 74.2631 24.5795C74.1505 24.6127 74.0228 24.6442 73.8803 24.674C73.7378 24.7005 73.5953 24.7254 73.4528 24.7486C73.3103 24.7685 73.181 24.7867 73.065 24.8033C72.8164 24.8397 72.5993 24.8977 72.4137 24.9773C72.2281 25.0568 72.0839 25.1645 71.9812 25.3004C71.8784 25.433 71.8271 25.5987 71.8271 25.7976C71.8271 26.0859 71.9315 26.3063 72.1403 26.4588C72.3524 26.608 72.6209 26.6825 72.9457 26.6825ZM80.4006 17.8182V28H78.2827V17.8182H80.4006ZM86.1589 20.3636V21.9545H81.5602V20.3636H86.1589ZM82.6042 18.5341H84.7221V25.6534C84.7221 25.849 84.752 26.0014 84.8116 26.1108C84.8713 26.2169 84.9541 26.2914 85.0602 26.3345C85.1696 26.3776 85.2955 26.3991 85.438 26.3991C85.5375 26.3991 85.6369 26.3909 85.7363 26.3743C85.8358 26.3544 85.912 26.3395 85.965 26.3295L86.2981 27.9055C86.1921 27.9387 86.0429 27.9768 85.8507 28.0199C85.6584 28.0663 85.4248 28.0945 85.1497 28.1044C84.6393 28.1243 84.1918 28.0563 83.8074 27.9006C83.4262 27.7448 83.1296 27.5028 82.9174 27.1747C82.7053 26.8466 82.6009 26.4323 82.6042 25.9318V18.5341ZM89.8205 23.5852V28H87.7026V17.8182H89.7608V21.7109H89.8503C90.0227 21.2602 90.3011 20.9072 90.6855 20.652C91.07 20.3935 91.5523 20.2642 92.1323 20.2642C92.6626 20.2642 93.1249 20.3802 93.5194 20.6122C93.9171 20.8409 94.2253 21.1707 94.4441 21.6016C94.6661 22.0291 94.7755 22.5412 94.7722 23.1378V28H92.6543V23.5156C92.6576 23.045 92.5383 22.6787 92.2963 22.4169C92.0577 22.1551 91.723 22.0241 91.2921 22.0241C91.0037 22.0241 90.7485 22.0855 90.5265 22.2081C90.3077 22.3307 90.1354 22.5097 90.0094 22.745C89.8868 22.977 89.8238 23.2571 89.8205 23.5852Z" fill="black"/>
</svg>
